<svg viewBox="0 0 100 100" xmlns="http://www.w3.org/2000/svg">
    <g transform="translate(0 -197)">
        <g stroke-width="1.78">
            <g stroke-width="4.707">
                <path d="M51.4 209.388L29.41 236.48l2.379 5.846 19.61-29.234 12.976 21.14 4.076-1.293z"/>
                <path d="M51.332 211.714l-.044.097-.098-.027-.03.113-.414.19-.105.028.004.018-.099.046.267.58.014.054-3.541 7.704.766.352 1.687-3.67-1.057 3.943.815.219 1.468-5.48v6.154h.843v-5.563l1.34 5.001.815-.218-1.057-3.943 1.687 3.67.766-.353-3.55-7.725v-.17l.023-.088.266-.58-.099-.045.005-.019-.105-.028z" color="#000" fill-rule="evenodd" solid-color="#000000" style="font-feature-settings:normal;font-variant-alternates:normal;font-variant-caps:normal;font-variant-ligatures:normal;font-variant-numeric:normal;font-variant-position:normal;isolation:auto;mix-blend-mode:normal;shape-padding:0;text-decoration-color:#000;text-decoration-line:none;text-decoration-style:solid;text-indent:0;text-orientation:mixed;text-transform:none" white-space="normal"/>
                <path d="M73.269 222.258l-19.965 24.844h6.988l12.977-21.14 12.976 21.14h6.989z"/>
                <path d="M73.201 224.585l-.044.096-.098-.026-.03.112-.414.19-.105.029.004.018-.099.045.267.58.014.054-3.541 7.704.766.352 1.687-3.669-1.057 3.943.815.218 1.468-5.479v6.153h.843v-5.562l1.34 5 .815-.217-1.057-3.943 1.687 3.669.766-.352-3.55-7.725v-.17l.023-.088.266-.58-.099-.046.005-.018-.105-.028z" color="#000" fill-rule="evenodd" solid-color="#000000" style="font-feature-settings:normal;font-variant-alternates:normal;font-variant-caps:normal;font-variant-ligatures:normal;font-variant-numeric:normal;font-variant-position:normal;isolation:auto;mix-blend-mode:normal;shape-padding:0;text-decoration-color:#000;text-decoration-line:none;text-decoration-style:solid;text-indent:0;text-orientation:mixed;text-transform:none" white-space="normal"/>
                <g>
                    <path d="M44.202 231.363l-19.965 24.844h6.989l12.976-21.14 12.977 21.14 4.74-2.586z"/>
                    <path d="M44.135 233.69l-.044.096-.099-.026-.03.112-.413.19-.106.028.005.018-.099.046.267.58.014.054-3.541 7.704.766.352 1.686-3.67-1.056 3.944.814.218 1.468-5.48v6.154h.844v-5.562l1.34 5 .814-.218-1.056-3.942 1.686 3.669.767-.353-3.551-7.724v-.17l.023-.088.267-.58-.099-.046.005-.018-.106-.029z" color="#000" fill-rule="evenodd" solid-color="#000000" style="font-feature-settings:normal;font-variant-alternates:normal;font-variant-caps:normal;font-variant-ligatures:normal;font-variant-numeric:normal;font-variant-position:normal;isolation:auto;mix-blend-mode:normal;shape-padding:0;text-decoration-color:#000;text-decoration-line:none;text-decoration-style:solid;text-indent:0;text-orientation:mixed;text-transform:none" white-space="normal"/>
                </g>
            </g>
            <path d="M24.014 237.238l-9.234 20.267h2.384l-5.77 13.153h2.255l-6.88 13.848H41.26l-6.88-13.848h2.254l-5.77-13.153h2.385zM51.402 209.387l-4.3 5.298 1.536 2.476-.085.177.623-.929-1.888 4.108.766.352 1.687-3.67-1.057 3.943.815.219 1.468-5.48v6.154h.843v-5.563l1.34 5.001.815-.218-1.057-3.943 1.687 3.67.766-.353-1.991-4.332 11.009 17.934 3.957-1.938z"/>
            <path d="M73.267 222.258l-9.43 11.734 3.223 2.082 3.419-5.57-1.325 2.883.766.352 1.687-3.67-1.057 3.944.815.218 1.468-5.48v6.154h.843v-5.563l1.34 5.001.815-.218-1.057-3.943.484-.966-.022-.048.026.042 1.38-2.754z"/>
        </g>
    </g>
</svg>
