<svg version="1.1" viewBox="0 0 100 100" xmlns="http://www.w3.org/2000/svg">
	<g transform="translate(0,-197)">
		<g transform="matrix(.64976 0 0 .64976 -19.587 168.51)" stroke-width="1.539">
			<g stroke-width="4.0696">
				<g transform="matrix(.37818 0 0 .37818 76.424 49.066)">
					<path transform="scale(.26458)" d="m331.43 47.887-391.16 481.95 42.316 104 348.84-520.06 230.84 376.06 72.512-22.986z"/>
					<path transform="scale(.26458)" d="m330.23 89.271-.79101 1.7207-1.7461-.46875-.53515 1.998-7.3555 3.3809-1.8789.50391.0859.32031-1.7617.81055 4.7441 10.322.25586.95312-63 137.05 13.629 6.2656 30.004-65.271-18.793 70.137 14.488 3.8828 26.117-97.467v109.46h15v-98.951l23.838 88.961 14.488-3.8828-18.793-70.137 30.004 65.271 13.629-6.2656-63.166-137.42v-3.0156l.42188-1.5742 4.7441-10.322-1.7617-.81055.0859-.32031-1.8789-.50391z" color="#000000" color-rendering="auto" dominant-baseline="auto" fill-rule="evenodd" image-rendering="auto" shape-rendering="auto" solid-color="#000000" style="font-feature-settings:normal;font-variant-alternates:normal;font-variant-caps:normal;font-variant-ligatures:normal;font-variant-numeric:normal;font-variant-position:normal;isolation:auto;mix-blend-mode:normal;shape-padding:0;text-decoration-color:#000000;text-decoration-line:none;text-decoration-style:solid;text-indent:0;text-orientation:mixed;text-transform:none;white-space:normal"/>
				</g>
				<g transform="matrix(.37818 0 0 .37818 115.35 71.975)">
					<path transform="scale(.26458)" d="m331.43 47.887-355.16 441.95h124.32l230.84-376.06 230.84 376.06h124.32z"/>
					<path transform="scale(.26458)" d="m330.23 89.271-.79101 1.7207-1.7461-.46875-.53515 1.998-7.3555 3.3809-1.8789.50391.0859.32031-1.7617.81055 4.7441 10.322.25586.95312-63 137.05 13.629 6.2656 30.004-65.271-18.793 70.137 14.488 3.8828 26.117-97.467v109.46h15v-98.951l23.838 88.961 14.488-3.8828-18.793-70.137 30.004 65.271 13.629-6.2656-63.166-137.42v-3.0156l.42188-1.5742 4.7441-10.322-1.7617-.81055.0859-.32031-1.8789-.50391z" color="#000000" color-rendering="auto" dominant-baseline="auto" fill-rule="evenodd" image-rendering="auto" shape-rendering="auto" solid-color="#000000" style="font-feature-settings:normal;font-variant-alternates:normal;font-variant-caps:normal;font-variant-ligatures:normal;font-variant-numeric:normal;font-variant-position:normal;isolation:auto;mix-blend-mode:normal;shape-padding:0;text-decoration-color:#000000;text-decoration-line:none;text-decoration-style:solid;text-indent:0;text-orientation:mixed;text-transform:none;white-space:normal"/>
				</g>
				<g transform="matrix(.37818 0 0 .37818 63.613 88.181)">
					<path transform="scale(.26458)" d="m331.43 47.887-355.16 441.95h124.32l230.84-376.06 230.84 376.06 84.318-46z"/>
					<path transform="scale(.26458)" d="m330.23 89.271-.79101 1.7207-1.7461-.46875-.53515 1.998-7.3555 3.3809-1.8789.50391.0859.32031-1.7617.81055 4.7441 10.322.25586.95312-63 137.05 13.629 6.2656 30.004-65.271-18.793 70.137 14.488 3.8828 26.117-97.467v109.46h15v-98.951l23.838 88.961 14.488-3.8828-18.793-70.137 30.004 65.271 13.629-6.2656-63.166-137.42v-3.0156l.42188-1.5742 4.7441-10.322-1.7617-.81055.0859-.32031-1.8789-.50391z" color="#000000" color-rendering="auto" dominant-baseline="auto" fill-rule="evenodd" image-rendering="auto" shape-rendering="auto" solid-color="#000000" style="font-feature-settings:normal;font-variant-alternates:normal;font-variant-caps:normal;font-variant-ligatures:normal;font-variant-numeric:normal;font-variant-position:normal;isolation:auto;mix-blend-mode:normal;shape-padding:0;text-decoration-color:#000000;text-decoration-line:none;text-decoration-style:solid;text-indent:0;text-orientation:mixed;text-transform:none;white-space:normal"/>
				</g>
			</g>
			<path d="m60.841 103.43-16.437 36.074h4.2439l-10.269 23.413h4.0121l-12.246 24.649h61.393l-12.246-24.649h4.0121l-10.269-23.413h4.2439z"/>
			<path d="m109.59 53.857-7.6538 9.4302 2.7348 4.4063-.15126.31484 1.1089-1.6531-3.3608 7.3114 1.3637.62693 3.0022-6.531-1.8804 7.0178 1.4497.38851 2.6133-9.7524v10.952h1.5009v-9.901l2.3852 8.9014 1.4497-.38851-1.8804-7.0178 3.0022 6.531 1.3637-.62693-3.5443-7.7102 19.595 31.922 7.0432-3.4501z"/>
			<path d="m148.51 76.766-16.785 20.887 5.7366 3.7047 6.0848-9.9129-2.3582 5.1304 1.3637.62693 3.0022-6.531-1.8804 7.0178 1.4497.38851 2.6133-9.7524v10.952h1.5009v-9.901l2.3852 8.9014 1.4497-.38851-1.8804-7.0178.86145-1.7194-.0399-.08677.0459.07485 2.456-4.9017z"/>
		</g>
	</g>
</svg>
